<?xml version="1.0" standalone="no"?><!DOCTYPE svg PUBLIC "-//W3C//DTD SVG 1.1//EN" "http://www.w3.org/Graphics/SVG/1.1/DTD/svg11.dtd"><svg class="icon" height="512" viewBox="0 0 1024 1024" version="1.1" xmlns="http://www.w3.org/2000/svg"><path d="M512 0c282.772 0 512 229.228 512 512S794.772 1024 512 1024 0 794.772 0 512 229.228 0 512 0z" fill="#B1E9F1" /><path d="M332.836 161.568a54.4 54.4 0 0 1 24.574 5.828 44.186 44.186 0 0 1 31.016-12.658c20.914 0 38.444 14.476 43.142 33.952a35.11 35.11 0 0 1 22.664 21.162 33.944 33.944 0 0 1 3.82-0.202c19.314 0 34.992 15.664 34.992 34.996 0 19.328-15.678 34.996-34.992 34.996-6.024 0-11.696-1.516-16.634-4.196-4.25 14.546-17.678 25.166-33.602 25.166a34.86 34.86 0 0 1-24.852-10.372 34.9 34.9 0 0 1-24.872 10.372 34.92 34.92 0 0 1-23.91-9.438 34.89 34.89 0 0 1-25.82 11.384c-9.58 0-18.252-3.83-24.56-10.064-2.892 0.64-5.9 0.97-8.98 0.97-23.034 0-41.69-18.668-41.69-41.69 0-23.024 18.656-41.694 41.69-41.694 1.25 0 2.496 0.06 3.724 0.178 2.958-27.38 26.138-48.69 54.29-48.69z" fill="#FFFFFF" /><path d="M585.978 289.03c55.8 0 101.026 45.226 101.026 101.022 0 55.794-45.226 101.02-101.026 101.02-55.786 0-101.026-45.226-101.026-101.02 0-55.796 45.24-101.022 101.026-101.022z" fill="#FFD600" /><path d="M0.118 521.374c51.164-38.894 313.664-237.858 344.06-249.376 33.696-12.772 183.144 167.042 227.422 177.106 44.274 10.064 201.254-136.856 201.254-136.856s54.278 38.272 156.982 120.752c30.48 24.478 62.31 32.724 92.018 32.234A517.164 517.164 0 0 1 1024 512c0 4.614-0.068 9.218-0.192 13.808L2.822 565.888a517.834 517.834 0 0 1-2.704-44.514z" fill="#9F877E" /><path d="M772.856 312.248s54.278 38.272 156.982 120.752c30.48 24.478 62.31 32.724 92.018 32.234A517.9 517.9 0 0 1 1024 512c0 4.614-0.068 9.218-0.192 13.808l-319.056 12.52c-1.76-7.72-1.224-14.614 4.6-17.552 16.662-8.42 63.216-4.186 43.998-68.938-19.218-64.754 19.506-139.59 19.506-139.59zM344.18 271.998c30.352-11.502 154.604 133.222 211.334 169.424l77.088 98.854-338.976 14.198c-14.12-27.99-14.152-56.21 22.402-74.532 96.5-48.374 28.152-207.944 28.152-207.944z" fill="#8F7A71" /><path d="M455.156 725.762c-1.75-12.952 4.078-31.766 14.972-52.524l0.51-0.97-6.02-12.878 6.73-0.102-1.434-10.986 21.762 4.188-1.434-10.99-11.064 6.858-3.66 2.272-0.572 0.362-1.178 0.728-3.508 2.182-1.974 0.022 5.836 12.864-3.482 5.48-6.446-14.55 7.49 2.432-2.094-13.482 22.212 15.856-2.094-13.484 0.198 0.312-8.27 1.68-5.598 1.136-0.852 0.168-1.352 0.276-3.6 0.732-1.856 0.006 5.956 12.984-7.784-5.988 4.696-1.37 2.512-8.768 1.044-3.65 1.516-10.052 19.76 4.782 1.218-8.062-4.952-10.812 23.516-3.588-3.174-6.932-5.556-13.656 20.94 6.826-0.178-12.278 23.048 8.484-0.118-8.182 0.096-9.066 3.422-1.004-3.482-14.848 15.662 5.712-3.894-12.356 11.27 2.066 0.97-14.028 24.478 13.868 0.138-1.942-2.31-13.31 24.84 10.62-2.3-13.314 11.948-4.952 0.206-0.234 0.742-0.028 1.664-0.054 0.072-0.006 6.038 7.926 8.32-8.232 4.25 0.298 0.71 0.064 1.374 1.264 4.842-12.96 5.328-4.98 0.71-0.66 2.314-5.432 18.17 26.47 6.29-14.774 7.454-1.658 4.558-2.914 9.304-7.702 0.362 1.25 16.74 13.854 4.21-14.07 21.412 20.108 4.22-14.07 0.252-0.064 2.562-0.692 1.036-0.28 1.52-0.412 1.576-0.422 0.298-0.084 8.768-10.908 10.652 25.884 8.768-10.904 26.37 2.094 0.498 0.036 4.596 1.718 1.196 2.372 9.634-7.224 4.66 1.094 0.862 0.21 1.782 2.712 6.368-15.136 4.15-0.376 0.994-0.092 1.534-0.146 0.5-0.044 0.498-0.046 4.824-0.444 1.842-11.302 22.192 5.722 1.846-11.312 0.902-0.582 2.346-1.534 1.698-1.224 0.288-0.192 1.974-1.292 0.052 0.746 14.028 0.114-8.53 7.774 2.844 10.912 14.032-4.472 5.588-1.782 20.36-2.552 7.284-3.352 2.584-1.566 11.564-10.432 1.3 16.088 0.096 1.264 9.51 1.2 5.438-10.362 13.24 19.296 5.448-10.362 4.898-2.524 0.342-0.184 1.302-0.664 3.216-1.664 5.622-2.496-2.712 29.412 8.438-3.748c-1.598 85.226-24.006 165.352-62.37 235.518-118.122-30.648-304.208-78.118-506.354-31.526z" fill="#ADB32A" /><path d="M22.004 660.83c30.492-1.396 60.614-0.398 89.128 3.972 179.562 27.51 295.494 13.346 432.946-8.716 137.452-22.068 227.894 12.574 342.178 65.594 36.53 16.95 61.462 19.558 83.964 18.924C886.232 908.616 712.608 1024 512 1024c-231.004 0-426.244-152.986-489.996-363.17z" fill="#7CB142" /><path d="M13.212 395.97l9.058 27.808 1.73-1.84 6.184-7.408 7.636-12.928 4.682 30.378 7.636-12.914 11.404-2.996 6.542-1.708 10.556 12.47 7.814-8.232 2.052 0.11 2.02 0.1 6.262 0.476 1.008 0.046 0.102 0.006 0.494 0.004 0.096-0.01 0.462-0.01 0.33-0.05 1.726-1.732 0.824 2.52 1.096 0.458 12.346-4.132-1.726 7.394 14.654-5.146-14.1 27.57 7.166-2.506 14.558-9.562 3.982-3.852 13.156-6.904-5.942 29.398 2.73-1.43 5.75-0.32 6.63-11.638 2.08 2.566 8.778-7.612 7.262 22.854 0.696-0.6 0.846-6.71-13.248 0.54-1.026 0.04-0.514 0.022-1.16 0.046-0.514 0.018-4.43 0.178-5.402 0.294 6.754-11.724 2.016 2.58 9.138-7.66 6.454 23.722 1.11-0.926 3.39-12.75 21.266 16.296 0.774-1.566 2.918-10.958 5.452 3.198 10.406-1.754 1.26 7.408 12.296 1.068-1.69 6.152 9.148-0.642-1.49 6.57 10.138 3.972 9.464 3.6 7.27-7.4 6.528 29.106 10.156-10.34 7.11-0.568 2.098-0.164 1.04-0.088 14.55 1.356 2.708-9.402 0.256-0.174-0.508 0.338-1.324 0.898-15.77 10.63 0.07-3.922 15.466 17.474 4.63-12.86 1.082 1.54 4.704 6.688 3.55 5.058 1.068 2.08 8.938-9.428 1.192 0.078 5.398 0.37 3.202-3.902 15.47-15.076c13.172-16.3-4.41-2.14-21.77 8.452l-1.796 0.678-5.41 11.792 4.92 2.992 5.168 3.138 4.086-4.196 1.25-1.108 3.954-3.5 1.288-1.48 6.674 26.796 8.796-10.12 2.328 4.934 4.586 9.716 0.532 1.136 1.416 6.156 11.132-9.868 4.358 6.542 1.186 1.784 0.5 14.248 11.692-3.376 5.932 1.412 2.248 0.532c21.176 16.034-5.23 11.618-5.23 11.618s-281.11 16.808-407.75 11.812A519.904 519.904 0 0 1 0 512c0-39.912 4.572-78.748 13.212-116.03z" fill="#32681E" /><path d="M115.998 442.506l-1.892 3.698 7.166-2.506 6.222-4.092-13.388 26.182 7.166-2.51 14.558-9.558 3.982-3.858 8.732-4.576-1.516 7.49 2.73-1.43 1.536-0.088-4.266 21.1 2.73-1.428 5.75-0.32 6.63-11.638 2.08 2.566 8.778-7.614 7.262 22.856 0.696-0.6 0.846-6.71-13.248 0.54-1.026 0.042-0.514 0.022-1.16 0.046-0.514 0.018-4.43 0.178-5.402 0.294 6.754-11.724 2.016 2.58 9.138-7.66 6.454 23.722 1.11-0.93 3.39-12.744 21.266 16.292 0.774-1.562 2.918-10.958 5.452 3.198 10.406-1.754 1.26 7.404 12.296 1.072-1.69 6.148 9.148-0.638-1.49 6.57 10.138 3.972 9.464 3.6 7.27-7.404 6.528 29.104 10.156-10.336 7.11-0.572 2.098-0.164 1.04-0.082 14.55 1.35 1.788-6.212-0.888 2.474-2.46-2.782-13.076 8.814 0.07-3.922 15.466 17.468 4.63-12.854 1.082 1.54 4.704 6.688 3.55 5.058 1.068 2.08 8.938-9.43 1.192 0.078 5.398 0.372 3.202-3.904 9.346-9.112-1.628-6.542c-2.798 1.842-5.89 3.894-9.08 5.932l-2.056 2.112-0.656-0.394-2.226 1.374-1.796 0.684-5.41 11.792 4.92 2.992 5.168 3.138 4.086-4.2 1.25-1.11 3.954-3.496 1.288-1.484 6.674 26.796 8.796-10.116 2.328 4.934 4.586 9.716 0.532 1.136 1.416 6.152 11.132-9.864 4.358 6.542 1.186 1.782 0.202 5.708c-59.698 3.364-283.628 15.26-392.81 10.954A517.324 517.324 0 0 1 0 512c0-32.086 2.982-63.476 8.626-93.928l4.014-4.278 9.63 29.572 1.73-1.848 6.184-7.404 7.636-12.928 4.682 30.378 7.636-12.914 11.404-2.996 6.542-1.71 10.556 12.466 7.814-8.228 2.052 0.11 2.02 0.1 6.262 0.476 1.008 0.046 0.102 0.004 0.494 0.006 0.096-0.01 0.462-0.01 0.33-0.05 1.726-1.732 0.824 2.52 1.096 0.46 12.346-4.132-1.726 7.394 2.452-0.858z" fill="#54892E" /><path d="M638.46 739.454c-0.632 2.376-13.724 98.882-13.724 98.882l27.826 2.35-0.292-97.426-13.81-3.806z" fill="#785448" /><path d="M590.586 566.11s45.982-9.158 40.704 2.674c-5.278 11.838-64.44 42.674-64.44 42.674s46.972-6.734 39.916 9.364c-7.06 16.098-65.53 43.114-65.53 43.114s75.608-11.618 54.928 9.822c-20.68 21.444-95.606 57.554-95.606 57.554s95.268-20.148 92.212 3.752c-3.05 23.896-41.918 30.75-50.004 45.858 0 0 94.002-16.7 104.254-3.908 10.702 0.018 105.516 16.576 105.684 12.442-6.932-15.568-47.14-26.988-48.378-51.016s92.28 1.838 92.28 1.838-72.018-40.558-91.024-63.208c-19.012-22.646 55.548-6.474 55.548-6.474s-56.3-30.492-62.118-46.98c-5.818-16.492 40.536-6.934 40.536-6.934s-56.688-34.336-61.064-46.468c-4.37-12.126 40.814-0.206 40.814-0.206-38.052-31.992-52.02-65.476-61.284-83.076-10.57 17.004-27.044 49.568-67.428 79.178z" fill="#2E7C32" /><path d="M590.586 566.11s45.982-9.158 40.704 2.68c-5.278 11.828-64.434 42.67-64.434 42.67s46.962-6.738 39.912 9.364c-7.056 16.098-65.53 43.114-65.53 43.114s75.608-11.618 54.928 9.822c-20.68 21.444-95.61 57.554-95.61 57.554s95.272-20.142 92.216 3.752c-3.046 23.9-41.922 30.744-50.01 45.854-19.218 6.616 77.666-11.676 104.26-3.902l11.846-288.448-0.852-1.636c-10.572 17.002-27.046 49.562-67.43 79.176z" fill="#388D3C" /><path d="M767.476 778.06c-0.408 1.544-8.924 64.312-8.924 64.312l18.102 1.53-0.192-63.364-8.986-2.478z" fill="#785448" /><path d="M736.342 665.32s29.908-5.96 26.476 1.742c-3.436 7.692-41.914 27.748-41.914 27.748s30.552-4.378 25.962 6.094c-4.592 10.468-42.62 28.042-42.62 28.042s49.176-7.558 35.724 6.386c-13.45 13.95-62.176 37.438-62.176 37.438s61.956-13.106 59.968 2.438c-1.984 15.544-27.258 19.998-32.522 29.824 0 0 61.138-10.858 67.812-2.542 6.958 0.01 68.622 10.786 68.732 8.096-4.502-10.124-30.662-17.556-31.464-33.182-0.802-15.626 60.018 1.19 60.018 1.19s-46.838-26.374-59.204-41.108c-12.36-14.728 36.128-4.21 36.128-4.21s-36.612-19.832-40.396-30.558c-3.784-10.724 26.36-4.506 26.36-4.506s-36.866-22.334-39.71-30.224c-2.844-7.888 26.544-0.132 26.544-0.132-24.752-20.81-33.832-42.588-39.856-54.032-6.876 11.058-17.596 32.232-43.862 51.496z" fill="#2E7C32" /><path d="M736.342 665.32s29.908-5.96 26.476 1.742c-3.436 7.692-41.91 27.754-41.91 27.754s30.548-4.384 25.958 6.088c-4.592 10.468-42.62 28.042-42.62 28.042s49.176-7.554 35.724 6.39c-13.45 13.946-62.18 37.434-62.18 37.434s61.96-13.106 59.976 2.438c-1.984 15.544-27.266 19.992-32.53 29.824-12.498 4.302 50.516-7.596 67.816-2.542l7.7-187.602-0.548-1.068c-6.876 11.062-17.596 32.236-43.862 51.5z" fill="#388D3C" /><path d="M517.406 671.128c6.638-0.316 17.748 0.152 25.984-1.97 8.236-2.116 13.616-6.822 13.298-10.914-0.312-4.086-6.312-7.554-12.69-9.812-6.382-2.258-13.144-3.302-19.658-1.274-6.516 2.036-12.782 7.152-15.732 12.076-2.95 4.924-2.584 9.654-1.306 11.476 1.276 1.822 3.456 0.736 10.104 0.418z" fill="#484A49" /><path d="M514.138 657.01c1.09-2.286 4.572-5.684 9.51-7.22 4.94-1.536 11.334-1.196 15.586-0.082 4.256 1.114 6.362 3 6.518 4.594 0.152 1.59-1.654 2.882-5.226 3.522-3.574 0.646-8.914 0.642-13.358 1.164-4.44 0.522-7.972 1.576-10.394 1.52-2.42-0.054-3.724-1.216-2.636-3.498z" fill="#65696A" /><path d="M465.656 675.17c4.93-0.234 13.168 0.114 19.278-1.462 6.112-1.572 10.098-5.062 9.864-8.096-0.234-3.032-4.682-5.606-9.414-7.276-4.728-1.68-9.744-2.454-14.578-0.944-4.832 1.502-9.478 5.3-11.668 8.952-2.186 3.65-1.92 7.16-0.972 8.512 0.944 1.354 2.56 0.548 7.49 0.314z" fill="#484A49" /><path d="M463.236 664.698c0.812-1.696 3.394-4.22 7.06-5.356 3.66-1.136 8.406-0.884 11.558-0.064 3.152 0.826 4.72 2.232 4.834 3.41 0.114 1.182-1.228 2.14-3.876 2.616-2.652 0.482-6.614 0.476-9.914 0.862-3.29 0.39-5.914 1.168-7.706 1.126-1.794-0.044-2.762-0.904-1.956-2.594z" fill="#65696A" /><path d="M620.796 854.962c8.398-0.398 22.43 0.192 32.848-2.492 10.414-2.68 17.204-8.626 16.808-13.794-0.398-5.164-7.98-9.548-16.038-12.402-8.062-2.854-16.612-4.178-24.844-1.608-8.236 2.57-16.154 9.038-19.882 15.26-3.73 6.222-3.268 12.204-1.66 14.504 1.612 2.304 4.37 0.924 12.768 0.532z" fill="#484A49" /><path d="M616.672 837.112c1.374-2.89 5.78-7.186 12.02-9.126 6.244-1.938 14.326-1.506 19.7-0.106 5.378 1.408 8.04 3.798 8.232 5.81 0.198 2.012-2.084 3.646-6.596 4.456-4.522 0.812-11.28 0.802-16.886 1.466-5.612 0.66-10.08 1.992-13.136 1.924-3.06-0.066-4.714-1.542-3.334-4.424z" fill="#65696A" /><path d="M696.32 864.264c8.398-0.394 22.436 0.192 32.848-2.492 10.418-2.676 17.206-8.628 16.808-13.79-0.394-5.168-7.976-9.548-16.034-12.406-8.068-2.854-16.616-4.178-24.848-1.608s-16.154 9.038-19.878 15.264c-3.728 6.222-3.27 12.204-1.658 14.504 1.612 2.302 4.366 0.924 12.762 0.528z" fill="#484A49" /><path d="M692.204 846.416c1.374-2.892 5.776-7.188 12.02-9.122 6.244-1.942 14.326-1.512 19.7-0.106 5.374 1.408 8.04 3.798 8.232 5.804 0.198 2.012-2.088 3.646-6.602 4.458-4.516 0.816-11.278 0.806-16.886 1.466-5.606 0.66-10.078 1.992-13.134 1.924-3.056-0.066-4.71-1.538-3.33-4.424z" fill="#65696A" /><path d="M528.062 605.062l-20.94-6.826 5.556 13.656 3.174 6.932-23.516 3.588 4.952 10.812-1.218 8.062-19.76-4.782-1.516 10.052-0.734 2.542 2.992 0.576 2.12-1.318 11.064-6.858 1.434 10.99-1.476-0.284 1.416 9.142c1.098 0.76 1.984 1.582 2.546 2.456 0.888-0.128 1.782-0.256 2.674-0.39l0.454-3.024-4.952-10.812 23.516-3.586-3.174-6.928-5.556-13.662 20.94 6.826-0.178-12.272 23.048 8.484-0.118-8.186 0.096-9.062 3.422-1.004-3.482-14.848 15.662 5.708-3.894-12.354 11.27 2.07 0.97-14.032 24.478 13.872 0.138-1.942-2.31-13.308 18.082 7.73a161.308 161.308 0 0 0 5.57-3.982l-1.114-6.44 11.948-4.952c2.006-10.174-41.07-1.598-41.07-1.598a234.14 234.14 0 0 0 5.762-4.366l-21.486-12.178-0.97 14.028-11.27-2.066 3.894 12.356-15.662-5.712 3.482 14.848-3.422 1.004-0.096 9.066 0.036 2.254 0.082 5.928-23.048-8.484 0.184 12.274z m161.104-66.12a205.18 205.18 0 0 0 12.686 14.674l2.844-1.824 9.304-7.7 0.362 1.25 16.74 13.858 4.21-14.07 21.412 20.108 4.22-14.07 0.252-0.064 2.562-0.696 1.036-0.28 1.52-0.408 1.576-0.426 0.298-0.082 8.768-10.908 10.652 25.888 8.768-10.904 26.37 2.09 0.498 0.036 4.596 1.722 1.196 2.372 9.634-7.226 4.66 1.096 0.862 0.21 1.782 2.708 6.368-15.13 4.15-0.382 0.994-0.092 1.534-0.146 0.5-0.046 0.498-0.046 4.824-0.44 1.31-8.028 0.532-3.28 10.972 2.832 11.218 2.892 0.546-3.354 1.3-7.954 0.902-0.586 2.346-1.532 1.698-1.222 0.288-0.192 1.974-1.292 0.052 0.742 14.028 0.114-8.53 7.78 0.924 3.554 1.92 7.358 14.032-4.476 5.588-1.776 20.36-2.552 0.476-0.22 6.808-3.134 2.584-1.566 11.564-10.432 1.154 14.268 0.146 1.818 0.096 1.264 9.51 1.2 2.496-4.764 2.942-5.594 3.66 5.332 9.58 13.964 5.448-10.366 4.898-2.52 0.342-0.184 1.302-0.668 2.244-1.16 0.97-0.498 3.01-1.338 2.612-28.33-5.622 2.496-3.216 1.664-1.302 0.664-0.342 0.184-4.898 2.524-5.448 10.362-13.24-19.296-5.438 10.362-9.51-1.2-0.096-1.264-1.3-16.088-11.564 10.432-2.584 1.566-7.284 3.352-20.36 2.552-5.588 1.782-14.032 4.472-2.844-10.912 8.53-7.774-14.028-0.114-0.052-0.746-1.974 1.292-0.288 0.192-1.698 1.224-2.346 1.534-0.902 0.582-1.846 11.312-22.192-5.722-1.842 11.302-4.824 0.444-0.498 0.046-0.5 0.044-1.534 0.146-0.994 0.092-4.15 0.376-6.368 15.136-1.782-2.712-0.862-0.21-4.66-1.094-9.634 7.224-1.196-2.372-4.596-1.718-0.498-0.036-26.37-2.094-7.156 8.898-1.612 2.006-0.792-1.916-9.86-23.97-8.768 10.908-0.298 0.084-1.576 0.422-1.52 0.412-1.036 0.28-2.562 0.692-0.252 0.064-3.678 12.272-0.54 1.796-1.814-1.704-19.598-18.404-4.21 14.07-16.196-13.404-0.544-0.45-0.36-1.252-4.65 3.852-3.298 2.722-1.356 1.126-4.558 2.914-7.454 1.658-3.926 9.218c0.138 0.18 0.27 0.354 0.408 0.528z" fill="#9D9B24" /><path d="M547.202 552.36c28.674 0 51.924 1.598 51.924 3.582 0 1.98-23.25 3.582-51.924 3.582s-51.924-1.602-51.924-3.582c0-1.984 23.25-3.582 51.924-3.582zM16.168 640.128l-0.106-0.416c3.788-1.302 45.464-2.322 96.32-2.322 53.354 0 96.604 1.126 96.604 2.514s-43.25 2.516-96.604 2.516c-50.442-0.002-91.848-1.01-96.214-2.292z m304.268 11.348c68.494 0 124.024 1.238 124.024 2.768 0 1.53-55.528 2.768-124.024 2.768-68.5 0-124.028-1.238-124.028-2.768 0-1.532 55.528-2.768 124.028-2.768z m-67.176-41.254c90.31 0 163.524 1.916 163.524 4.274 0 2.36-73.214 4.278-163.524 4.278s-163.518-1.92-163.518-4.278c0-2.36 73.208-4.274 163.518-4.274z m-127.798-30.696c64.188 0 116.226 1.238 116.226 2.768 0 1.53-52.038 2.764-116.226 2.764s-116.226-1.234-116.226-2.764c0-1.53 52.038-2.768 116.226-2.768z m304.91-8.048c53.908 0 97.608 2.248 97.608 5.03 0 2.776-43.7 5.026-97.608 5.026-53.912 0-97.612-2.25-97.612-5.026-0.002-2.78 43.7-5.03 97.612-5.03z" fill="#DFF5F9" /><path d="M662.008 191.22s11.536-2.474 21.192-0.628c9.68 1.856 19.764 9.882 30.676 10.5 10.908 0.614 8.64-3.504 8.64-3.504s-7 1.04-8.856-4.934c-1.842-5.97 5.768-10.712 17.496-18.93 11.738-8.232 14-16.464 11.738-21.618 0 0-2.066 3.294-11.738 8.444-9.67 5.15-16.666 14.618-24.276 21.394-7.62 6.804-8.036 7.206-15.238 5.774-7.196-1.444-22.634-3.704-29.634 3.502zM607.532 265.002s11.536-2.474 21.192-0.626c9.682 1.854 19.764 9.882 30.676 10.5 10.908 0.614 8.64-3.506 8.64-3.506s-6.996 1.036-8.856-4.932c-1.842-5.97 5.768-10.712 17.496-18.93 11.738-8.232 14-16.464 11.738-21.618 0 0-2.062 3.294-11.738 8.444-9.67 5.15-16.666 14.62-24.276 21.394-7.618 6.804-8.034 7.206-15.236 5.768-7.196-1.442-22.636-3.7-29.636 3.506zM756.074 194.784s11.536-2.474 21.192-0.626c9.68 1.854 19.764 9.882 30.676 10.504 10.908 0.61 8.64-3.51 8.64-3.51s-6.996 1.04-8.856-4.928c-1.842-5.974 5.768-10.716 17.496-18.934 11.738-8.232 14-16.464 11.738-21.618 0 0-2.062 3.294-11.738 8.444-9.672 5.15-16.666 14.62-24.276 21.394-7.618 6.804-8.036 7.206-15.236 5.772-7.196-1.444-22.634-3.702-29.636 3.502zM724.386 258.158s11.54-2.474 21.196-0.622c9.68 1.85 19.76 9.882 30.672 10.5 10.908 0.614 8.64-3.504 8.64-3.504s-6.996 1.036-8.856-4.934c-1.842-5.97 5.774-10.712 17.496-18.93 11.738-8.232 14-16.47 11.738-21.618 0 0-2.062 3.294-11.738 8.442-9.67 5.146-16.662 14.62-24.276 21.394-7.62 6.798-8.032 7.206-15.232 5.768-7.196-1.444-22.64-3.704-29.64 3.504z" fill="" /></svg>